<svg id="Слой_1" data-name="Слой 1" xmlns="http://www.w3.org/2000/svg" xmlns:xlink="http://www.w3.org/1999/xlink" viewBox="0 0 40 40"><defs><style>.cls-1{fill:url(#Безымянный_градиент_2);}.cls-2{fill:url(#Безымянный_градиент_3);}.cls-3{fill:url(#Безымянный_градиент_2-2);}</style><linearGradient id="Безымянный_градиент_2" x1="21.08" y1="41.14" x2="21.08" y2="1.14" gradientTransform="matrix(1, 0, 0, -1, 0, 42.28)" gradientUnits="userSpaceOnUse"><stop offset="0" stop-color="#bc9cff"/><stop offset="1" stop-color="#8ba4f9"/></linearGradient><linearGradient id="Безымянный_градиент_3" x1="27.4" y1="26.27" x2="27.4" y2="20.36" gradientTransform="matrix(1, 0, 0, -1, 0, 42.28)" gradientUnits="userSpaceOnUse"><stop offset="0" stop-color="#6fcf97"/><stop offset="1" stop-color="#66d2ea"/></linearGradient><linearGradient id="Безымянный_градиент_2-2" x1="16.22" y1="26.25" x2="16.22" y2="14.48" xlink:href="#Безымянный_градиент_2"/></defs><path class="cls-1" d="M21.08,41.14a20,20,0,1,1,20-20A20,20,0,0,1,21.08,41.14Zm0-37.65A17.65,17.65,0,1,0,38.73,21.14,17.66,17.66,0,0,0,21.08,3.49Z" transform="translate(-1.08 -1.14)"/><path class="cls-2" d="M32,17.18a1.18,1.18,0,0,1-1.18,1.18A8.22,8.22,0,0,0,24,21.91a12.68,12.68,0,0,0-1.18-2.29A10.47,10.47,0,0,1,30.78,16,1.18,1.18,0,0,1,32,17.18Z" transform="translate(-1.08 -1.14)"/><path class="cls-3" d="M20.93,27.8a1.18,1.18,0,0,1-1.18-1.18,8.26,8.26,0,0,0-8.23-8.24,1.18,1.18,0,1,1,0-2.35A10.58,10.58,0,0,1,22.1,26.62,1.17,1.17,0,0,1,20.93,27.8Z" transform="translate(-1.08 -1.14)"/></svg>